<?xml version="1.0" encoding="utf-8"?>
<!-- Generator: Adobe Illustrator 16.0.0, SVG Export Plug-In . SVG Version: 6.00 Build 0)  -->
<!DOCTYPE svg PUBLIC "-//W3C//DTD SVG 1.1//EN" "http://www.w3.org/Graphics/SVG/1.1/DTD/svg11.dtd">
<svg version="1.1" id="Layer_1" xmlns="http://www.w3.org/2000/svg" xmlns:xlink="http://www.w3.org/1999/xlink" x="0px" y="0px"
	 width="64px" height="48px" viewBox="0 0 64 48" enable-background="new 0 0 64 48" xml:space="preserve">
<g>
	<polygon fill="#E64A19" points="56.021,5.014 59.995,8.554 56.021,11.973 	"/>
	<polygon fill="#E64A19" points="22.006,5.014 25.979,8.554 22.006,11.973 	"/>
	<polygon fill="#E64A19" points="7.938,5.014 3.964,8.554 7.938,11.973 	"/>
	<polygon fill="#E64A19" points="11.985,5.014 8.011,8.554 11.985,11.973 	"/>
	<polygon fill="#E64A19" points="52.048,5.014 56.021,8.554 52.048,11.973 	"/>
	<rect x="41" y="4.011" fill="#E64A19" width="1.009" height="6.974"/>
	<rect x="38" y="4.011" fill="#E64A19" width="1.009" height="6.974"/>
</g>
<g opacity="0.7">
	<polygon fill="#E64A19" points="56.021,21.022 59.995,24.563 56.021,27.981 	"/>
	<polygon fill="#E64A19" points="22.006,21.022 25.979,24.563 22.006,27.981 	"/>
	<polygon fill="#E64A19" points="7.938,21.022 3.964,24.563 7.938,27.981 	"/>
	<polygon fill="#E64A19" points="11.985,21.022 8.011,24.563 11.985,27.981 	"/>
	<polygon fill="#E64A19" points="52.048,21.022 56.021,24.563 52.048,27.981 	"/>
	<rect x="41" y="20.019" fill="#E64A19" width="1.009" height="6.973"/>
	<rect x="38" y="20.019" fill="#E64A19" width="1.009" height="6.973"/>
</g>
<g opacity="0.9">
	<polygon fill="#E64A19" points="56.021,36.925 59.995,40.465 56.021,43.885 	"/>
	<polygon fill="#E64A19" points="22.006,36.925 25.979,40.465 22.006,43.885 	"/>
	<polygon fill="#E64A19" points="7.938,36.925 3.964,40.465 7.938,43.885 	"/>
	<polygon fill="#E64A19" points="11.985,36.925 8.011,40.465 11.985,43.885 	"/>
	<polygon fill="#E64A19" points="52.048,36.925 56.021,40.465 52.048,43.885 	"/>
	<rect x="41" y="35.922" fill="#E64A19" width="1.009" height="6.973"/>
	<rect x="38" y="35.922" fill="#E64A19" width="1.009" height="6.973"/>
</g>
</svg>
