<?xml version="1.0" encoding="utf-8"?>
<!-- Generator: Adobe Illustrator 16.0.0, SVG Export Plug-In . SVG Version: 6.00 Build 0)  -->
<!DOCTYPE svg PUBLIC "-//W3C//DTD SVG 1.1 Tiny//EN" "http://www.w3.org/Graphics/SVG/1.1/DTD/svg11-tiny.dtd">
<svg version="1.1" baseProfile="tiny" id="Layer_1" xmlns="http://www.w3.org/2000/svg" xmlns:xlink="http://www.w3.org/1999/xlink"
	 x="0px" y="0px" width="315px" height="32.001px" viewBox="0 0 315 32.001" overflow="scroll" xml:space="preserve">
<path fill="#E44C25" d="M131.495,2.667c-0.107,0-0.197,0.018-0.269,0.049c-0.074,0.034-0.144,0.104-0.211,0.209L119.22,23.548
	c-0.067,0.133-0.126,0.262-0.179,0.389c-0.053,0.125-0.108,0.248-0.16,0.367c-0.106-0.236-0.218-0.484-0.337-0.736L106.388,2.925
	c-0.066-0.105-0.136-0.175-0.208-0.209c-0.074-0.031-0.164-0.049-0.269-0.049h-0.657v28.014h0.955V5.058
	c0-0.105-0.003-0.216-0.011-0.328c-0.007-0.113-0.016-0.231-0.029-0.35l12.115,20.664c0.133,0.225,0.298,0.336,0.498,0.336h0.199
	c0.186,0,0.346-0.111,0.478-0.336L131.216,4.42c0,0.107-0.004,0.212-0.011,0.32c-0.007,0.105-0.011,0.213-0.011,0.318v25.623h0.958
	V2.667H131.495z M150.602,5.038c0.16-0.36,0.299-0.757,0.417-1.196c0.134,0.439,0.272,0.836,0.421,1.196l6.415,15.6h-13.668
	L150.602,5.038z M150.502,2.667l-11.595,28.014h0.816c0.24,0,0.393-0.111,0.458-0.338l3.646-8.867h14.386l3.646,8.867
	c0.094,0.227,0.238,0.338,0.439,0.338h0.855L151.559,2.667H150.502z M208.307,5.038c0.158-0.36,0.299-0.757,0.418-1.196
	c0.131,0.439,0.271,0.836,0.418,1.196l6.416,15.6h-13.668L208.307,5.038z M208.205,2.667l-11.596,28.014h0.816
	c0.24,0,0.393-0.111,0.459-0.338l3.645-8.867h14.387l3.648,8.867c0.092,0.227,0.238,0.338,0.438,0.338h0.857L209.262,2.667H208.205z
	 M225.123,2.667v0.936h18.588l-18.828,26.242c-0.066,0.078-0.113,0.156-0.141,0.229c-0.025,0.072-0.039,0.162-0.039,0.27v0.338
	h20.424v-0.938h-18.93l18.811-26.18c0.133-0.213,0.199-0.404,0.199-0.578V2.667H225.123z M252.936,30.681h1.098V2.667h-1.098V30.681
	z M284.598,2.667V28.11c0,0.107,0.004,0.219,0.012,0.34c0.004,0.119,0.014,0.236,0.029,0.357l-19.15-25.883
	c-0.078-0.105-0.152-0.175-0.217-0.209c-0.068-0.031-0.152-0.049-0.26-0.049h-0.498v28.014h0.957V5.177
	c0-0.105-0.006-0.222-0.012-0.349c-0.006-0.125-0.016-0.248-0.029-0.368l19.229,25.982c0.119,0.158,0.264,0.238,0.439,0.238h0.457
	V2.667H284.598z M296.035,2.667v28.014h16.539l0.039-0.938h-15.482V16.935h13.012v-0.918h-13.012V3.603h15.443V2.667H296.035z
	 M175.627,3.354c-1.713,0.671-3.174,1.63-4.383,2.88c-1.209,1.248-2.135,2.752-2.779,4.512c-0.645,1.761-0.967,3.737-0.967,5.929
	s0.326,4.17,0.979,5.938c0.648,1.766,1.59,3.27,2.816,4.512c1.23,1.242,2.723,2.199,4.477,2.869
	c1.752,0.672,3.725,1.008,5.916,1.008c2.006,0,3.805-0.277,5.4-0.828c1.594-0.549,3.082-1.299,4.461-2.242v-9.564h-7.27v0.559
	c0,0.08,0.031,0.154,0.098,0.221c0.066,0.064,0.146,0.098,0.238,0.098h5.92v8.229c-0.68,0.414-1.35,0.783-2.014,1.107
	s-1.348,0.602-2.053,0.828c-0.703,0.225-1.451,0.396-2.24,0.516c-0.791,0.119-1.645,0.18-2.561,0.18
	c-2.033,0-3.855-0.307-5.471-0.926c-1.613-0.617-2.982-1.508-4.105-2.67c-1.121-1.162-1.98-2.574-2.58-4.234
	c-0.598-1.66-0.896-3.525-0.896-5.598c0-2.087,0.299-3.956,0.896-5.607c0.6-1.656,1.451-3.061,2.563-4.215
	c1.109-1.157,2.451-2.04,4.025-2.652c1.572-0.609,3.338-0.915,5.289-0.915c1.514,0,2.801,0.146,3.855,0.438
	c1.057,0.291,1.922,0.614,2.6,0.966c0.678,0.353,1.191,0.681,1.545,0.987c0.352,0.305,0.594,0.478,0.727,0.517
	c0.199,0.054,0.352,0,0.459-0.158l0.279-0.419c-0.625-0.544-1.273-1.024-1.943-1.434c-0.67-0.412-1.385-0.755-2.143-1.026
	c-0.758-0.273-1.576-0.475-2.459-0.609c-0.885-0.133-1.852-0.2-2.9-0.2C179.268,2.347,177.342,2.685,175.627,3.354 M7.379,6.133
	h5.599c1.409,0,2.674,0.234,3.797,0.697c1.123,0.466,2.078,1.133,2.869,2.004c0.79,0.869,1.395,1.933,1.812,3.187
	c0.421,1.256,0.629,2.674,0.629,4.254s-0.208,3-0.629,4.256c-0.417,1.254-1.022,2.316-1.812,3.186
	c-0.791,0.871-1.746,1.539-2.869,2.002c-1.123,0.467-2.388,0.699-3.797,0.699H7.379V6.133z M2,1.869v28.812h10.978
	c2.193,0,4.185-0.352,5.979-1.057c1.794-0.701,3.327-1.693,4.603-2.969c1.275-1.275,2.264-2.795,2.969-4.563
	c0.703-1.766,1.055-3.705,1.055-5.818c0-2.111-0.352-4.051-1.055-5.816c-0.705-1.767-1.694-3.285-2.969-4.553
	c-1.276-1.269-2.809-2.258-4.603-2.969c-1.794-0.71-3.786-1.067-5.979-1.067H2z M64.107,1.869v4.404h8.687v24.408h5.36V6.273h8.688
	V1.869H64.107z M42.997,25.718c-1.122-0.463-2.08-1.131-2.871-2.002c-0.79-0.869-1.396-1.932-1.822-3.186
	c-0.425-1.256-0.637-2.676-0.637-4.256s0.212-2.998,0.637-4.254c0.426-1.254,1.032-2.319,1.822-3.198
	c0.791-0.877,1.749-1.546,2.871-2.012c1.12-0.466,2.388-0.697,3.794-0.697c1.41,0,2.674,0.231,3.797,0.697
	c1.123,0.466,2.075,1.135,2.859,2.012c0.783,0.878,1.388,1.944,1.812,3.198c0.426,1.256,0.639,2.674,0.639,4.254
	s-0.213,3-0.639,4.256c-0.424,1.254-1.029,2.316-1.812,3.186c-0.784,0.871-1.736,1.539-2.859,2.002
	c-1.123,0.467-2.387,0.699-3.797,0.699C45.385,26.417,44.117,26.185,42.997,25.718 M40.834,2.656
	c-1.794,0.738-3.331,1.764-4.613,3.08c-1.281,1.314-2.274,2.873-2.978,4.672c-0.704,1.8-1.056,3.755-1.056,5.866
	c0,2.113,0.352,4.068,1.056,5.867c0.704,1.803,1.697,3.357,2.978,4.674c1.282,1.316,2.819,2.342,4.613,3.078
	c1.794,0.738,3.779,1.107,5.957,1.107c2.194,0,4.185-0.369,5.979-1.107c1.792-0.736,3.327-1.762,4.603-3.078
	c1.276-1.316,2.261-2.871,2.959-4.674c0.697-1.799,1.045-3.754,1.045-5.867c0-1.406-0.157-2.75-0.467-4.024
	c-0.314-1.274-0.768-2.456-1.366-3.547c-0.597-1.087-1.325-2.074-2.181-2.958c-0.858-0.882-1.824-1.634-2.899-2.251
	c-1.077-0.618-2.259-1.096-3.547-1.435c-1.29-0.339-2.663-0.508-4.126-0.508C44.613,1.551,42.628,1.92,40.834,2.656"/>
</svg>
